<svg xmlns="http://www.w3.org/2000/svg" viewBox="0 0 480 360" font-family="sans-serif">
  <rect width="480" height="360" fill="white" />
  <text x="240.0" y="20" font-size="13" text-anchor="middle" font-weight="bold">confidence: isotonic-calibrated (held-out test, ECE=0.007)</text>
  <line x1="50" y1="310" x2="50" y2="50" stroke="black" stroke-width="1" />
  <line x1="50" y1="310" x2="430" y2="310" stroke="black" stroke-width="1" />
  <line x1="50.0" y1="310.0" x2="430.0" y2="50.0" stroke="#999" stroke-dasharray="4,4" />
  <text x="50.0" y="326" font-size="10" text-anchor="middle">0.0</text><text x="42" y="313.0" font-size="10" text-anchor="end">0.0</text><text x="126.0" y="326" font-size="10" text-anchor="middle">0.2</text><text x="42" y="261.0" font-size="10" text-anchor="end">0.2</text><text x="202.0" y="326" font-size="10" text-anchor="middle">0.4</text><text x="42" y="209.0" font-size="10" text-anchor="end">0.4</text><text x="278.0" y="326" font-size="10" text-anchor="middle">0.6</text><text x="42" y="157.0" font-size="10" text-anchor="end">0.6</text><text x="354.0" y="326" font-size="10" text-anchor="middle">0.8</text><text x="42" y="105.0" font-size="10" text-anchor="end">0.8</text><text x="430.0" y="326" font-size="10" text-anchor="middle">1.0</text><text x="42" y="53.0" font-size="10" text-anchor="end">1.0</text>
  <circle cx="50.8" cy="310.0" r="4.2" fill="#2563eb" fill-opacity="0.75" /><circle cx="116.0" cy="180.0" r="3.0" fill="#2563eb" fill-opacity="0.75" /><circle cx="172.6" cy="224.3" r="4.2" fill="#2563eb" fill-opacity="0.75" /><circle cx="316.0" cy="223.3" r="3.1" fill="#2563eb" fill-opacity="0.75" /><circle cx="333.9" cy="115.0" r="3.1" fill="#2563eb" fill-opacity="0.75" /><circle cx="368.3" cy="50.0" r="3.0" fill="#2563eb" fill-opacity="0.75" /><circle cx="430.0" cy="50.0" r="10.0" fill="#2563eb" fill-opacity="0.75" />
  <text x="240.0" y="350" font-size="11" text-anchor="middle">mean predicted confidence</text>
  <text x="14" y="180.0" font-size="11" text-anchor="middle" transform="rotate(-90 14 180.0)">empirical accuracy</text>
</svg>